<mxfile host="app.diagrams.net" modified="2023-06-09T11:14:53.893Z" agent="Mozilla/5.0 (Macintosh; Intel Mac OS X 10_15_7) AppleWebKit/537.36 (KHTML, like Gecko) Chrome/113.0.0.0 Safari/537.36" etag="0gmHOo5s47d7U-qBIP6w" version="21.3.8" type="github">
  <diagram name="第 1 页" id="6wHuQopaQ-I1JBOTUaVT">
    <mxGraphModel dx="1432" dy="684" grid="1" gridSize="10" guides="1" tooltips="1" connect="1" arrows="1" fold="1" page="1" pageScale="1" pageWidth="827" pageHeight="1169" math="0" shadow="0">
      <root>
        <mxCell id="0" />
        <mxCell id="1" parent="0" />
        <mxCell id="NdO_Myqfiw3nwa_kzbYg-15" value="" style="group" vertex="1" connectable="0" parent="1">
          <mxGeometry x="90" y="110" width="560" height="60" as="geometry" />
        </mxCell>
        <mxCell id="NdO_Myqfiw3nwa_kzbYg-1" value="03" style="ellipse;whiteSpace=wrap;html=1;aspect=fixed;" vertex="1" parent="NdO_Myqfiw3nwa_kzbYg-15">
          <mxGeometry width="60" height="60" as="geometry" />
        </mxCell>
        <mxCell id="NdO_Myqfiw3nwa_kzbYg-2" value="02" style="ellipse;whiteSpace=wrap;html=1;aspect=fixed;" vertex="1" parent="NdO_Myqfiw3nwa_kzbYg-15">
          <mxGeometry x="410" width="60" height="60" as="geometry" />
        </mxCell>
        <mxCell id="NdO_Myqfiw3nwa_kzbYg-3" value="06" style="ellipse;whiteSpace=wrap;html=1;aspect=fixed;" vertex="1" parent="NdO_Myqfiw3nwa_kzbYg-15">
          <mxGeometry x="500" width="60" height="60" as="geometry" />
        </mxCell>
        <mxCell id="NdO_Myqfiw3nwa_kzbYg-14" style="edgeStyle=orthogonalEdgeStyle;rounded=0;orthogonalLoop=1;jettySize=auto;html=1;exitX=1;exitY=0.5;exitDx=0;exitDy=0;entryX=0;entryY=0.5;entryDx=0;entryDy=0;" edge="1" parent="NdO_Myqfiw3nwa_kzbYg-15" source="NdO_Myqfiw3nwa_kzbYg-2" target="NdO_Myqfiw3nwa_kzbYg-3">
          <mxGeometry relative="1" as="geometry" />
        </mxCell>
        <mxCell id="NdO_Myqfiw3nwa_kzbYg-4" value="01" style="ellipse;whiteSpace=wrap;html=1;aspect=fixed;" vertex="1" parent="NdO_Myqfiw3nwa_kzbYg-15">
          <mxGeometry x="80" width="60" height="60" as="geometry" />
        </mxCell>
        <mxCell id="NdO_Myqfiw3nwa_kzbYg-9" style="edgeStyle=orthogonalEdgeStyle;rounded=0;orthogonalLoop=1;jettySize=auto;html=1;exitX=1;exitY=0.5;exitDx=0;exitDy=0;entryX=0;entryY=0.5;entryDx=0;entryDy=0;" edge="1" parent="NdO_Myqfiw3nwa_kzbYg-15" source="NdO_Myqfiw3nwa_kzbYg-1" target="NdO_Myqfiw3nwa_kzbYg-4">
          <mxGeometry relative="1" as="geometry" />
        </mxCell>
        <mxCell id="NdO_Myqfiw3nwa_kzbYg-5" value="07" style="ellipse;whiteSpace=wrap;html=1;aspect=fixed;" vertex="1" parent="NdO_Myqfiw3nwa_kzbYg-15">
          <mxGeometry x="160" width="60" height="60" as="geometry" />
        </mxCell>
        <mxCell id="NdO_Myqfiw3nwa_kzbYg-10" style="edgeStyle=orthogonalEdgeStyle;rounded=0;orthogonalLoop=1;jettySize=auto;html=1;exitX=1;exitY=0.5;exitDx=0;exitDy=0;entryX=0;entryY=0.5;entryDx=0;entryDy=0;" edge="1" parent="NdO_Myqfiw3nwa_kzbYg-15" source="NdO_Myqfiw3nwa_kzbYg-4" target="NdO_Myqfiw3nwa_kzbYg-5">
          <mxGeometry relative="1" as="geometry" />
        </mxCell>
        <mxCell id="NdO_Myqfiw3nwa_kzbYg-6" value="10" style="ellipse;whiteSpace=wrap;html=1;aspect=fixed;" vertex="1" parent="NdO_Myqfiw3nwa_kzbYg-15">
          <mxGeometry x="240" width="60" height="60" as="geometry" />
        </mxCell>
        <mxCell id="NdO_Myqfiw3nwa_kzbYg-11" style="edgeStyle=orthogonalEdgeStyle;rounded=0;orthogonalLoop=1;jettySize=auto;html=1;exitX=1;exitY=0.5;exitDx=0;exitDy=0;entryX=0;entryY=0.5;entryDx=0;entryDy=0;" edge="1" parent="NdO_Myqfiw3nwa_kzbYg-15" source="NdO_Myqfiw3nwa_kzbYg-5" target="NdO_Myqfiw3nwa_kzbYg-6">
          <mxGeometry relative="1" as="geometry" />
        </mxCell>
        <mxCell id="NdO_Myqfiw3nwa_kzbYg-13" style="edgeStyle=orthogonalEdgeStyle;rounded=0;orthogonalLoop=1;jettySize=auto;html=1;exitX=1;exitY=0.5;exitDx=0;exitDy=0;entryX=0;entryY=0.5;entryDx=0;entryDy=0;" edge="1" parent="NdO_Myqfiw3nwa_kzbYg-15" source="NdO_Myqfiw3nwa_kzbYg-7" target="NdO_Myqfiw3nwa_kzbYg-2">
          <mxGeometry relative="1" as="geometry" />
        </mxCell>
        <mxCell id="NdO_Myqfiw3nwa_kzbYg-7" value="12" style="ellipse;whiteSpace=wrap;html=1;aspect=fixed;" vertex="1" parent="NdO_Myqfiw3nwa_kzbYg-15">
          <mxGeometry x="324" width="60" height="60" as="geometry" />
        </mxCell>
        <mxCell id="NdO_Myqfiw3nwa_kzbYg-12" style="edgeStyle=orthogonalEdgeStyle;rounded=0;orthogonalLoop=1;jettySize=auto;html=1;exitX=1;exitY=0.5;exitDx=0;exitDy=0;entryX=0;entryY=0.5;entryDx=0;entryDy=0;" edge="1" parent="NdO_Myqfiw3nwa_kzbYg-15" source="NdO_Myqfiw3nwa_kzbYg-6" target="NdO_Myqfiw3nwa_kzbYg-7">
          <mxGeometry relative="1" as="geometry" />
        </mxCell>
        <mxCell id="NdO_Myqfiw3nwa_kzbYg-16" value="" style="group" vertex="1" connectable="0" parent="1">
          <mxGeometry x="90" y="210" width="560" height="60" as="geometry" />
        </mxCell>
        <mxCell id="NdO_Myqfiw3nwa_kzbYg-17" value="01" style="ellipse;whiteSpace=wrap;html=1;aspect=fixed;" vertex="1" parent="NdO_Myqfiw3nwa_kzbYg-16">
          <mxGeometry width="60" height="60" as="geometry" />
        </mxCell>
        <mxCell id="NdO_Myqfiw3nwa_kzbYg-18" value="11" style="ellipse;whiteSpace=wrap;html=1;aspect=fixed;" vertex="1" parent="NdO_Myqfiw3nwa_kzbYg-16">
          <mxGeometry x="410" width="60" height="60" as="geometry" />
        </mxCell>
        <mxCell id="NdO_Myqfiw3nwa_kzbYg-19" value="09" style="ellipse;whiteSpace=wrap;html=1;aspect=fixed;" vertex="1" parent="NdO_Myqfiw3nwa_kzbYg-16">
          <mxGeometry x="500" width="60" height="60" as="geometry" />
        </mxCell>
        <mxCell id="NdO_Myqfiw3nwa_kzbYg-20" style="edgeStyle=orthogonalEdgeStyle;rounded=0;orthogonalLoop=1;jettySize=auto;html=1;exitX=1;exitY=0.5;exitDx=0;exitDy=0;entryX=0;entryY=0.5;entryDx=0;entryDy=0;" edge="1" parent="NdO_Myqfiw3nwa_kzbYg-16" source="NdO_Myqfiw3nwa_kzbYg-18" target="NdO_Myqfiw3nwa_kzbYg-19">
          <mxGeometry relative="1" as="geometry" />
        </mxCell>
        <mxCell id="NdO_Myqfiw3nwa_kzbYg-21" value="02" style="ellipse;whiteSpace=wrap;html=1;aspect=fixed;" vertex="1" parent="NdO_Myqfiw3nwa_kzbYg-16">
          <mxGeometry x="80" width="60" height="60" as="geometry" />
        </mxCell>
        <mxCell id="NdO_Myqfiw3nwa_kzbYg-22" style="edgeStyle=orthogonalEdgeStyle;rounded=0;orthogonalLoop=1;jettySize=auto;html=1;exitX=1;exitY=0.5;exitDx=0;exitDy=0;entryX=0;entryY=0.5;entryDx=0;entryDy=0;" edge="1" parent="NdO_Myqfiw3nwa_kzbYg-16" source="NdO_Myqfiw3nwa_kzbYg-17" target="NdO_Myqfiw3nwa_kzbYg-21">
          <mxGeometry relative="1" as="geometry" />
        </mxCell>
        <mxCell id="NdO_Myqfiw3nwa_kzbYg-23" value="12" style="ellipse;whiteSpace=wrap;html=1;aspect=fixed;" vertex="1" parent="NdO_Myqfiw3nwa_kzbYg-16">
          <mxGeometry x="160" width="60" height="60" as="geometry" />
        </mxCell>
        <mxCell id="NdO_Myqfiw3nwa_kzbYg-24" style="edgeStyle=orthogonalEdgeStyle;rounded=0;orthogonalLoop=1;jettySize=auto;html=1;exitX=1;exitY=0.5;exitDx=0;exitDy=0;entryX=0;entryY=0.5;entryDx=0;entryDy=0;" edge="1" parent="NdO_Myqfiw3nwa_kzbYg-16" source="NdO_Myqfiw3nwa_kzbYg-21" target="NdO_Myqfiw3nwa_kzbYg-23">
          <mxGeometry relative="1" as="geometry" />
        </mxCell>
        <mxCell id="NdO_Myqfiw3nwa_kzbYg-25" value="06" style="ellipse;whiteSpace=wrap;html=1;aspect=fixed;" vertex="1" parent="NdO_Myqfiw3nwa_kzbYg-16">
          <mxGeometry x="240" width="60" height="60" as="geometry" />
        </mxCell>
        <mxCell id="NdO_Myqfiw3nwa_kzbYg-26" style="edgeStyle=orthogonalEdgeStyle;rounded=0;orthogonalLoop=1;jettySize=auto;html=1;exitX=1;exitY=0.5;exitDx=0;exitDy=0;entryX=0;entryY=0.5;entryDx=0;entryDy=0;" edge="1" parent="NdO_Myqfiw3nwa_kzbYg-16" source="NdO_Myqfiw3nwa_kzbYg-23" target="NdO_Myqfiw3nwa_kzbYg-25">
          <mxGeometry relative="1" as="geometry" />
        </mxCell>
        <mxCell id="NdO_Myqfiw3nwa_kzbYg-27" style="edgeStyle=orthogonalEdgeStyle;rounded=0;orthogonalLoop=1;jettySize=auto;html=1;exitX=1;exitY=0.5;exitDx=0;exitDy=0;entryX=0;entryY=0.5;entryDx=0;entryDy=0;" edge="1" parent="NdO_Myqfiw3nwa_kzbYg-16" source="NdO_Myqfiw3nwa_kzbYg-28" target="NdO_Myqfiw3nwa_kzbYg-18">
          <mxGeometry relative="1" as="geometry" />
        </mxCell>
        <mxCell id="NdO_Myqfiw3nwa_kzbYg-28" value="05" style="ellipse;whiteSpace=wrap;html=1;aspect=fixed;" vertex="1" parent="NdO_Myqfiw3nwa_kzbYg-16">
          <mxGeometry x="324" width="60" height="60" as="geometry" />
        </mxCell>
        <mxCell id="NdO_Myqfiw3nwa_kzbYg-29" style="edgeStyle=orthogonalEdgeStyle;rounded=0;orthogonalLoop=1;jettySize=auto;html=1;exitX=1;exitY=0.5;exitDx=0;exitDy=0;entryX=0;entryY=0.5;entryDx=0;entryDy=0;" edge="1" parent="NdO_Myqfiw3nwa_kzbYg-16" source="NdO_Myqfiw3nwa_kzbYg-25" target="NdO_Myqfiw3nwa_kzbYg-28">
          <mxGeometry relative="1" as="geometry" />
        </mxCell>
        <mxCell id="NdO_Myqfiw3nwa_kzbYg-30" value="" style="group" vertex="1" connectable="0" parent="1">
          <mxGeometry x="90" y="320" width="560" height="60" as="geometry" />
        </mxCell>
        <mxCell id="NdO_Myqfiw3nwa_kzbYg-31" value="03" style="ellipse;whiteSpace=wrap;html=1;aspect=fixed;" vertex="1" parent="NdO_Myqfiw3nwa_kzbYg-30">
          <mxGeometry width="60" height="60" as="geometry" />
        </mxCell>
        <mxCell id="NdO_Myqfiw3nwa_kzbYg-32" value="10" style="ellipse;whiteSpace=wrap;html=1;aspect=fixed;" vertex="1" parent="NdO_Myqfiw3nwa_kzbYg-30">
          <mxGeometry x="410" width="60" height="60" as="geometry" />
        </mxCell>
        <mxCell id="NdO_Myqfiw3nwa_kzbYg-33" value="12" style="ellipse;whiteSpace=wrap;html=1;aspect=fixed;" vertex="1" parent="NdO_Myqfiw3nwa_kzbYg-30">
          <mxGeometry x="500" width="60" height="60" as="geometry" />
        </mxCell>
        <mxCell id="NdO_Myqfiw3nwa_kzbYg-34" style="edgeStyle=orthogonalEdgeStyle;rounded=0;orthogonalLoop=1;jettySize=auto;html=1;exitX=1;exitY=0.5;exitDx=0;exitDy=0;entryX=0;entryY=0.5;entryDx=0;entryDy=0;" edge="1" parent="NdO_Myqfiw3nwa_kzbYg-30" source="NdO_Myqfiw3nwa_kzbYg-32" target="NdO_Myqfiw3nwa_kzbYg-33">
          <mxGeometry relative="1" as="geometry" />
        </mxCell>
        <mxCell id="NdO_Myqfiw3nwa_kzbYg-35" value="01" style="ellipse;whiteSpace=wrap;html=1;aspect=fixed;" vertex="1" parent="NdO_Myqfiw3nwa_kzbYg-30">
          <mxGeometry x="80" width="60" height="60" as="geometry" />
        </mxCell>
        <mxCell id="NdO_Myqfiw3nwa_kzbYg-36" style="edgeStyle=orthogonalEdgeStyle;rounded=0;orthogonalLoop=1;jettySize=auto;html=1;exitX=1;exitY=0.5;exitDx=0;exitDy=0;entryX=0;entryY=0.5;entryDx=0;entryDy=0;" edge="1" parent="NdO_Myqfiw3nwa_kzbYg-30" source="NdO_Myqfiw3nwa_kzbYg-31" target="NdO_Myqfiw3nwa_kzbYg-35">
          <mxGeometry relative="1" as="geometry" />
        </mxCell>
        <mxCell id="NdO_Myqfiw3nwa_kzbYg-37" value="07" style="ellipse;whiteSpace=wrap;html=1;aspect=fixed;" vertex="1" parent="NdO_Myqfiw3nwa_kzbYg-30">
          <mxGeometry x="160" width="60" height="60" as="geometry" />
        </mxCell>
        <mxCell id="NdO_Myqfiw3nwa_kzbYg-38" style="edgeStyle=orthogonalEdgeStyle;rounded=0;orthogonalLoop=1;jettySize=auto;html=1;exitX=1;exitY=0.5;exitDx=0;exitDy=0;entryX=0;entryY=0.5;entryDx=0;entryDy=0;" edge="1" parent="NdO_Myqfiw3nwa_kzbYg-30" source="NdO_Myqfiw3nwa_kzbYg-35" target="NdO_Myqfiw3nwa_kzbYg-37">
          <mxGeometry relative="1" as="geometry" />
        </mxCell>
        <mxCell id="NdO_Myqfiw3nwa_kzbYg-39" value="11" style="ellipse;whiteSpace=wrap;html=1;aspect=fixed;" vertex="1" parent="NdO_Myqfiw3nwa_kzbYg-30">
          <mxGeometry x="240" width="60" height="60" as="geometry" />
        </mxCell>
        <mxCell id="NdO_Myqfiw3nwa_kzbYg-40" style="edgeStyle=orthogonalEdgeStyle;rounded=0;orthogonalLoop=1;jettySize=auto;html=1;exitX=1;exitY=0.5;exitDx=0;exitDy=0;entryX=0;entryY=0.5;entryDx=0;entryDy=0;" edge="1" parent="NdO_Myqfiw3nwa_kzbYg-30" source="NdO_Myqfiw3nwa_kzbYg-37" target="NdO_Myqfiw3nwa_kzbYg-39">
          <mxGeometry relative="1" as="geometry" />
        </mxCell>
        <mxCell id="NdO_Myqfiw3nwa_kzbYg-41" style="edgeStyle=orthogonalEdgeStyle;rounded=0;orthogonalLoop=1;jettySize=auto;html=1;exitX=1;exitY=0.5;exitDx=0;exitDy=0;entryX=0;entryY=0.5;entryDx=0;entryDy=0;" edge="1" parent="NdO_Myqfiw3nwa_kzbYg-30" source="NdO_Myqfiw3nwa_kzbYg-42" target="NdO_Myqfiw3nwa_kzbYg-32">
          <mxGeometry relative="1" as="geometry" />
        </mxCell>
        <mxCell id="NdO_Myqfiw3nwa_kzbYg-42" value="09" style="ellipse;whiteSpace=wrap;html=1;aspect=fixed;" vertex="1" parent="NdO_Myqfiw3nwa_kzbYg-30">
          <mxGeometry x="324" width="60" height="60" as="geometry" />
        </mxCell>
        <mxCell id="NdO_Myqfiw3nwa_kzbYg-43" style="edgeStyle=orthogonalEdgeStyle;rounded=0;orthogonalLoop=1;jettySize=auto;html=1;exitX=1;exitY=0.5;exitDx=0;exitDy=0;entryX=0;entryY=0.5;entryDx=0;entryDy=0;" edge="1" parent="NdO_Myqfiw3nwa_kzbYg-30" source="NdO_Myqfiw3nwa_kzbYg-39" target="NdO_Myqfiw3nwa_kzbYg-42">
          <mxGeometry relative="1" as="geometry" />
        </mxCell>
        <mxCell id="NdO_Myqfiw3nwa_kzbYg-45" style="edgeStyle=orthogonalEdgeStyle;orthogonalLoop=1;jettySize=auto;html=1;exitX=0.5;exitY=1;exitDx=0;exitDy=0;entryX=0.5;entryY=0;entryDx=0;entryDy=0;curved=1;" edge="1" parent="1" source="NdO_Myqfiw3nwa_kzbYg-4" target="NdO_Myqfiw3nwa_kzbYg-17">
          <mxGeometry relative="1" as="geometry" />
        </mxCell>
        <mxCell id="NdO_Myqfiw3nwa_kzbYg-46" style="edgeStyle=orthogonalEdgeStyle;orthogonalLoop=1;jettySize=auto;html=1;exitX=0.5;exitY=1;exitDx=0;exitDy=0;entryX=0.5;entryY=0;entryDx=0;entryDy=0;curved=1;" edge="1" parent="1" source="NdO_Myqfiw3nwa_kzbYg-7" target="NdO_Myqfiw3nwa_kzbYg-23">
          <mxGeometry relative="1" as="geometry" />
        </mxCell>
        <mxCell id="NdO_Myqfiw3nwa_kzbYg-47" style="edgeStyle=orthogonalEdgeStyle;orthogonalLoop=1;jettySize=auto;html=1;exitX=0.5;exitY=1;exitDx=0;exitDy=0;curved=1;" edge="1" parent="1" source="NdO_Myqfiw3nwa_kzbYg-2" target="NdO_Myqfiw3nwa_kzbYg-21">
          <mxGeometry relative="1" as="geometry" />
        </mxCell>
        <mxCell id="NdO_Myqfiw3nwa_kzbYg-48" style="edgeStyle=orthogonalEdgeStyle;orthogonalLoop=1;jettySize=auto;html=1;exitX=0.5;exitY=1;exitDx=0;exitDy=0;entryX=0.5;entryY=0;entryDx=0;entryDy=0;curved=1;" edge="1" parent="1" source="NdO_Myqfiw3nwa_kzbYg-3" target="NdO_Myqfiw3nwa_kzbYg-25">
          <mxGeometry relative="1" as="geometry" />
        </mxCell>
        <mxCell id="NdO_Myqfiw3nwa_kzbYg-49" style="edgeStyle=orthogonalEdgeStyle;orthogonalLoop=1;jettySize=auto;html=1;exitX=0.5;exitY=1;exitDx=0;exitDy=0;curved=1;" edge="1" parent="1" source="NdO_Myqfiw3nwa_kzbYg-17" target="NdO_Myqfiw3nwa_kzbYg-35">
          <mxGeometry relative="1" as="geometry" />
        </mxCell>
        <mxCell id="NdO_Myqfiw3nwa_kzbYg-50" style="edgeStyle=orthogonalEdgeStyle;orthogonalLoop=1;jettySize=auto;html=1;exitX=0.5;exitY=1;exitDx=0;exitDy=0;entryX=0.5;entryY=0;entryDx=0;entryDy=0;curved=1;" edge="1" parent="1" source="NdO_Myqfiw3nwa_kzbYg-23" target="NdO_Myqfiw3nwa_kzbYg-33">
          <mxGeometry relative="1" as="geometry" />
        </mxCell>
        <mxCell id="NdO_Myqfiw3nwa_kzbYg-51" style="edgeStyle=orthogonalEdgeStyle;orthogonalLoop=1;jettySize=auto;html=1;exitX=0.5;exitY=1;exitDx=0;exitDy=0;entryX=0.5;entryY=0;entryDx=0;entryDy=0;curved=1;" edge="1" parent="1" source="NdO_Myqfiw3nwa_kzbYg-18" target="NdO_Myqfiw3nwa_kzbYg-39">
          <mxGeometry relative="1" as="geometry" />
        </mxCell>
        <mxCell id="NdO_Myqfiw3nwa_kzbYg-52" style="edgeStyle=orthogonalEdgeStyle;orthogonalLoop=1;jettySize=auto;html=1;exitX=0.5;exitY=1;exitDx=0;exitDy=0;curved=1;" edge="1" parent="1" source="NdO_Myqfiw3nwa_kzbYg-19" target="NdO_Myqfiw3nwa_kzbYg-42">
          <mxGeometry relative="1" as="geometry" />
        </mxCell>
        <mxCell id="NdO_Myqfiw3nwa_kzbYg-53" style="edgeStyle=orthogonalEdgeStyle;orthogonalLoop=1;jettySize=auto;html=1;exitX=0.5;exitY=1;exitDx=0;exitDy=0;entryX=0.5;entryY=0;entryDx=0;entryDy=0;curved=1;" edge="1" parent="1" source="NdO_Myqfiw3nwa_kzbYg-1" target="NdO_Myqfiw3nwa_kzbYg-31">
          <mxGeometry relative="1" as="geometry">
            <Array as="points">
              <mxPoint x="60" y="170" />
              <mxPoint x="60" y="320" />
            </Array>
          </mxGeometry>
        </mxCell>
        <mxCell id="NdO_Myqfiw3nwa_kzbYg-54" style="edgeStyle=orthogonalEdgeStyle;rounded=0;orthogonalLoop=1;jettySize=auto;html=1;exitX=0.5;exitY=1;exitDx=0;exitDy=0;entryX=0.5;entryY=0;entryDx=0;entryDy=0;" edge="1" parent="1" source="NdO_Myqfiw3nwa_kzbYg-5" target="NdO_Myqfiw3nwa_kzbYg-37">
          <mxGeometry relative="1" as="geometry" />
        </mxCell>
        <mxCell id="NdO_Myqfiw3nwa_kzbYg-55" style="edgeStyle=orthogonalEdgeStyle;orthogonalLoop=1;jettySize=auto;html=1;exitX=0.5;exitY=1;exitDx=0;exitDy=0;curved=1;" edge="1" parent="1" source="NdO_Myqfiw3nwa_kzbYg-6" target="NdO_Myqfiw3nwa_kzbYg-32">
          <mxGeometry relative="1" as="geometry" />
        </mxCell>
        <mxCell id="NdO_Myqfiw3nwa_kzbYg-56" value="" style="shape=flexArrow;endArrow=classic;html=1;rounded=0;" edge="1" parent="1">
          <mxGeometry width="50" height="50" relative="1" as="geometry">
            <mxPoint x="30" y="170" as="sourcePoint" />
            <mxPoint x="30" y="290" as="targetPoint" />
          </mxGeometry>
        </mxCell>
        <mxCell id="NdO_Myqfiw3nwa_kzbYg-58" value="Day" style="edgeLabel;html=1;align=center;verticalAlign=middle;resizable=0;points=[];" vertex="1" connectable="0" parent="NdO_Myqfiw3nwa_kzbYg-56">
          <mxGeometry x="-0.3333" relative="1" as="geometry">
            <mxPoint as="offset" />
          </mxGeometry>
        </mxCell>
        <mxCell id="NdO_Myqfiw3nwa_kzbYg-57" value="" style="shape=flexArrow;endArrow=classic;html=1;rounded=0;" edge="1" parent="1">
          <mxGeometry width="50" height="50" relative="1" as="geometry">
            <mxPoint x="265" y="420" as="sourcePoint" />
            <mxPoint x="475" y="420" as="targetPoint" />
          </mxGeometry>
        </mxCell>
        <mxCell id="NdO_Myqfiw3nwa_kzbYg-59" value="Hour" style="edgeLabel;html=1;align=center;verticalAlign=middle;resizable=0;points=[];" vertex="1" connectable="0" parent="NdO_Myqfiw3nwa_kzbYg-57">
          <mxGeometry y="5" relative="1" as="geometry">
            <mxPoint as="offset" />
          </mxGeometry>
        </mxCell>
      </root>
    </mxGraphModel>
  </diagram>
</mxfile>
